{"title":"Mercy 2014 HDRIP x264 AC3 TiTAN","uid":11244296,"size":797586143,"categoryP":"video","categoryS":"movies","magnet":"?xt=urn:btih:0ab0e32c3415fdc4a3a876e706d0d5d510baa258&amp;dn=Mercy+2014+HDRIP+x264+AC3+TiTAN&amp;tr=udp%3A%2F%2Ftracker.openbittorrent.com%3A80&amp;tr=udp%3A%2F%2Fopen.demonii.com%3A1337&amp;tr=udp%3A%2F%2Ftracker.coppersurfer.tk%3A6969&amp;tr=udp%3A%2F%2Fexodus.desync.com%3A6969","seeders":7,"leechers":0,"uploader":"xxxlavalxxx","files":-1,"time":1413713494,"description":"[IMG]http://i.imgur.com/qUaeXZw.jpg[/IMG]\n\n &lt;a href=&quot;\nhttp://www.imdb.com/title/tt2481496/&quot; rel=&quot;nofollow&quot; target=&quot;_NEW&quot;&gt;\nhttp://www.imdb.com/title/tt2481496/&lt;/a&gt;\n\n\nA single mom and her two boys help take care of their grandmother with mystical powers.\n\nDirector: Peter Cornwell\nWriters: Matt Greenberg (screenplay), Stephen King (short story)\nStars: Chandler Riggs, Dylan McDermott, Mark Duplass\nGenres: Horror, Thriller\nCountry: USA\nLanguage: English\n\n\nSource: Own\n\nGeneral\n\nFormat                                   : Matroska\nFormat version                           : Version 2\nFile size                                : 761 MiB\nDuration                                 : 1h 18mn\nOverall bit rate mode                    : Variable\nOverall bit rate                         : 1 352 Kbps\nEncoded date                             : UTC 2014-10-18 23:38:36\n\nVideo\nID                                       : 1\nFormat                                   : AVC\nFormat/Info                              : Advanced Video Codec\nFormat profile                           : High@L4.1\nFormat settings, CABAC                   : Yes\nFormat settings, ReFrames                : 3 frames\nCodec ID                                 : V_MPEG4/ISO/AVC\nDuration                                 : 1h 18mn\nBit rate mode                            : Variable\nBit rate                                 : 941 Kbps\nMaximum bit rate                         : 40.0 Mbps\nWidth                                    : 720 pixels\nHeight                                   : 304 pixels\nDisplay aspect ratio                     : 2.35:1\nFrame rate mode                          : Constant\nFrame rate                               : 23.976 fps\nColor space                              : YUV\nChroma subsampling                       : 4:2:0\nBit depth                                : 8 bits\nScan type                                : Progressive\nBits/(Pixel*Frame)                       : 0.179\nStream size                              : 529 MiB (70%)\nDefault                                  : Yes\nForced                                   : No\nColor primaries                          : BT.709\nTransfer characteristics                 : BT.709\nMatrix coefficients                      : BT.709\n\nAudio\nID                                       : 2\nFormat                                   : AC-3\nFormat/Info                              : Audio Coding 3\nMode extension                           : CM (complete main)\nFormat settings, Endianness              : Big\nCodec ID                                 : A_AC3\nDuration                                 : 1h 18mn\nBit rate mode                            : Constant\nBit rate                                 : 384 Kbps\nChannel(s)                               : 6 channels\nChannel positions                        : Front: L C R, Side: L R, LFE\nSampling rate                            : 48.0 KHz\nBit depth                                : 16 bits\nCompression mode                         : Lossy\nStream size                              : 216 MiB (28%)\nLanguage                                 : English\nDefault                                  : Yes\nForced                                   : No\n\n\n\n &lt;a href=&quot;\nhttp://i.imgur.com/ZzdFGHM.jpg&quot; rel=&quot;nofollow&quot; target=&quot;_NEW&quot;&gt;\nhttp://i.imgur.com/ZzdFGHM.jpg&lt;/a&gt;\n &lt;a href=&quot;\nhttp://i.imgur.com/sEN0kBP.jpg&quot; rel=&quot;nofollow&quot; target=&quot;_NEW&quot;&gt;\nhttp://i.imgur.com/sEN0kBP.jpg&lt;/a&gt;\n &lt;a href=&quot;\nhttp://i.imgur.com/xDMEGPd.jpg&quot; rel=&quot;nofollow&quot; target=&quot;_NEW&quot;&gt;\nhttp://i.imgur.com/xDMEGPd.jpg&lt;/a&gt;\n &lt;a href=&quot;\nhttp://i.imgur.com/QMAH565.jpg&quot; rel=&quot;nofollow&quot; target=&quot;_NEW&quot;&gt;\nhttp://i.imgur.com/QMAH565.jpg&lt;/a&gt;","torrent":{"xt":"urn:btih:0ab0e32c3415fdc4a3a876e706d0d5d510baa258","amp;dn":"Mercy+2014+HDRIP+x264+AC3+TiTAN","amp;tr":["udp%3A%2F%2Ftracker.openbittorrent.com%3A80","udp%3A%2F%2Fopen.demonii.com%3A1337","udp%3A%2F%2Ftracker.coppersurfer.tk%3A6969","udp%3A%2F%2Fexodus.desync.com%3A6969"],"infoHash":"0ab0e32c3415fdc4a3a876e706d0d5d510baa258","infoHashBuffer":{"type":"Buffer","data":[10,176,227,44,52,21,253,196,163,168,118,231,6,208,213,213,16,186,162,88]},"announce":[],"urlList":[]}}